<svg xmlns="http://www.w3.org/2000/svg" style="display: none;">
    <symbol id="icon-close" viewBox="0 0 4 4">
        <path d="M3.88387 3.88387C3.72904 4.03871 3.47096 4.03871 3.31613 3.88387L2 2.56775L0.683871 3.88387C0.529038 4.03871 0.270958 4.03871 0.116125 3.88387C-0.0387083 3.72904 -0.0387083 3.47096 0.116125 3.31613L1.43225 2L0.116125 0.683871C-0.0387083 0.529038 -0.0387083 0.270958 0.116125 0.116125C0.270958 -0.0387083 0.529038 -0.0387083 0.683871 0.116125L2 1.43225L3.31613 0.116125C3.47096 -0.0387083 3.72904 -0.0387083 3.88387 0.116125C4.03871 0.270958 4.03871 0.529038 3.88387 0.683871L2.56775 2L3.88387 3.31613C4.03871 3.47096 4.03871 3.72902 3.88387 3.88387Z"/>
    </symbol>
</svg>