<svg width="36" height="40" viewBox="0 0 36 40" fill="none" xmlns="http://www.w3.org/2000/svg">
<path d="M23.9235 10.7659H4.76812C4.44312 10.7659 4.17969 11.0293 4.17969 11.3543C4.17969 11.6793 4.44312 11.9427 4.76812 11.9427H23.9236C24.2486 11.9427 24.512 11.6793 24.512 11.3543C24.512 11.0293 24.2485 10.7659 23.9235 10.7659Z" fill="#007BA7"/>
<path d="M4.76812 7.86096H14.3458C14.6708 7.86096 14.9342 7.59752 14.9342 7.27252C14.9342 6.94752 14.6708 6.68408 14.3458 6.68408H4.76812C4.44312 6.68408 4.17969 6.94752 4.17969 7.27252C4.17969 7.5976 4.44312 7.86096 4.76812 7.86096Z" fill="#007BA7"/>
<path d="M23.9235 14.3826H4.76812C4.44312 14.3826 4.17969 14.646 4.17969 14.971C4.17969 15.296 4.44312 15.5594 4.76812 15.5594H23.9236C24.2486 15.5594 24.512 15.296 24.512 14.971C24.512 14.646 24.2485 14.3826 23.9235 14.3826Z" fill="#007BA7"/>
<path d="M9.13188 35.9116H3.00164C1.99547 35.9116 1.1768 35.093 1.1768 34.0868V3.00164C1.1768 1.99547 1.99547 1.1768 3.00164 1.1768H20.6623C20.7193 1.1768 20.7755 1.18203 20.831 1.18953V4.85938C20.831 6.51453 22.1776 7.86102 23.8327 7.86102H27.5024C27.51 7.91664 27.5152 7.97282 27.5152 8.02985V18.0502C27.5152 18.3752 27.7786 18.6387 28.1036 18.6387C28.4286 18.6387 28.692 18.3752 28.692 18.0502V8.02992C28.692 7.38446 28.4406 6.77758 27.9842 6.3211L22.3709 0.707813C21.9145 0.251406 21.3077 0 20.6623 0H3.00164C1.34648 0 0 1.34656 0 3.00164V34.0868C0 35.7419 1.34656 37.0884 3.00164 37.0884H9.13188C9.45688 37.0884 9.72031 36.8249 9.72031 36.4999C9.72031 36.1749 9.45688 35.9116 9.13188 35.9116ZM26.6831 6.68422H23.8327C22.8266 6.68422 22.0079 5.86555 22.0079 4.85938V2.00906L26.6831 6.68422Z" fill="#007BA7"/>
<path d="M35.3306 28.807L30.3448 20.3914C29.9814 19.7778 29.1906 19.575 28.5767 19.9387L27.364 20.6572C26.4227 21.2149 26.0248 22.3434 26.348 23.3435C25.9394 23.4915 25.4914 23.4892 25.0789 23.3297C24.1214 23.0284 23.3934 22.4224 22.1912 22.7265C20.1498 23.2463 20.2118 23.2202 20.0271 23.2835C18.8318 22.603 18.1133 22.4005 16.8444 22.8913L15.7133 23.3286C15.1896 23.531 14.6126 23.483 14.1287 23.1963L13.82 23.0143C13.9706 22.1118 13.5704 21.1594 12.7229 20.6574C12.7229 20.6574 12.7229 20.6574 12.7228 20.6573L11.5102 19.9388C10.898 19.5763 10.1048 19.7792 9.74219 20.3914L4.75625 28.8071C4.39289 29.4206 4.59508 30.2116 5.20883 30.5751L6.42148 31.2935C6.78844 31.511 7.19172 31.6143 7.59015 31.6143C8.03445 31.6143 8.4725 31.4856 8.84703 31.2431L9.09976 31.3922L8.56617 32.1354C7.93031 33.0212 8.13234 34.2529 9.01828 34.8888C9.42797 35.1829 9.94266 35.3172 10.4749 35.2336C10.5594 35.7273 10.8298 36.1893 11.2678 36.5038C11.6791 36.7992 12.1915 36.9336 12.7247 36.8496C12.8094 37.3429 13.0797 37.8045 13.5174 38.1188C14.1057 38.5411 14.8371 38.5899 15.4466 38.3296C15.5799 38.676 15.8117 38.9888 16.1351 39.221C16.9795 39.827 18.1426 39.669 18.7987 38.8838L20.2166 39.7238C21.1544 40.2795 22.3643 39.9707 22.9203 39.0319C23.0625 38.7919 23.1507 38.5303 23.183 38.2615L23.1862 38.2635C24.1225 38.818 25.3352 38.5075 25.8898 37.5714C26.0505 37.3003 26.1385 37.0061 26.1599 36.7113C26.9852 36.9188 27.8847 36.5722 28.3402 35.8035C28.4896 35.5513 28.5763 35.2788 28.6048 35.0047C29.4893 35.3518 30.5231 35.0163 31.0227 34.1732C31.2913 33.7197 31.3673 33.1888 31.2366 32.6781C31.1619 32.3859 31.0244 32.1206 30.8356 31.8967L31.6172 31.44C32.2784 31.7114 33.0329 31.668 33.6652 31.2935L34.8777 30.575C35.4915 30.2117 35.6942 29.4209 35.3306 28.807ZM7.02133 30.2811L5.80867 29.5626C5.75476 29.5306 5.73687 29.4608 5.76875 29.4069L10.7547 20.991C10.7868 20.9369 10.8569 20.9193 10.9105 20.9512L12.123 21.6695C12.6619 21.9888 12.8305 22.6799 12.517 23.2089L8.5607 29.887C8.24492 30.4202 7.55445 30.5968 7.02133 30.2811ZM9.70453 33.9328C9.34719 33.6763 9.26547 33.1792 9.52219 32.8217L10.3065 31.7292C10.5563 31.3812 11.0542 31.286 11.4176 31.5468C11.7742 31.8028 11.856 32.3012 11.6001 32.6578L10.8157 33.7503C10.5597 34.1071 10.061 34.1887 9.70453 33.9328ZM11.9541 35.5479C11.5975 35.2918 11.5157 34.7933 11.7717 34.4367L12.556 33.3443C12.556 33.3443 12.556 33.3443 12.556 33.3442C12.556 33.3442 12.556 33.3442 12.5561 33.3442L13.4216 32.1385C13.5457 31.9658 13.7295 31.8516 13.9394 31.8172C13.983 31.81 14.0266 31.8065 14.07 31.8065C14.2352 31.8065 14.3959 31.8579 14.5327 31.9561C14.7054 32.0802 14.8196 32.2639 14.854 32.4738C14.8884 32.6837 14.8391 32.8944 14.7151 33.0671L13.0652 35.3654C12.8087 35.7228 12.3116 35.8046 11.9541 35.5479ZM14.2038 37.1628C13.8473 36.9069 13.7654 36.4088 14.0209 36.0522C14.021 36.052 14.0212 36.0519 14.0213 36.0517L15.6712 33.7535C15.927 33.397 16.4258 33.3151 16.7823 33.571C17.1389 33.827 17.2207 34.3255 16.9647 34.6821L16.2316 35.7033C16.2316 35.7033 16.2316 35.7033 16.2316 35.7034L15.3148 36.9804C15.0588 37.337 14.5605 37.419 14.2038 37.1628ZM16.8214 38.265C16.465 38.0091 16.383 37.5112 16.6384 37.1545L17.1876 36.3897C17.4435 36.033 17.9422 35.9514 18.2987 36.2073C18.6552 36.4632 18.7371 36.9617 18.4811 37.3184L17.9324 38.0825C17.6765 38.4392 17.1779 38.5211 16.8214 38.265ZM30.0104 33.5735C29.7865 33.9513 29.2971 34.0767 28.9191 33.8528C28.2791 33.4737 24.1507 31.0278 23.7105 30.767C23.4309 30.6014 23.07 30.6937 22.9044 30.9733C22.7388 31.2529 22.831 31.6138 23.1106 31.7795L27.0484 34.1124L27.0484 34.1124C27.4265 34.3363 27.5526 34.8242 27.3278 35.2038C27.1038 35.5818 26.6142 35.7069 26.2364 35.4832C24.78 34.6204 23.5974 33.9198 22.2966 33.1491C22.0168 32.9835 21.656 33.0757 21.4904 33.3553C21.3248 33.6349 21.417 33.9959 21.6966 34.1615L24.5981 35.8804L24.5987 35.8808C24.977 36.1054 25.1018 36.5931 24.8775 36.9718C24.6535 37.3499 24.1641 37.4751 23.786 37.2512L22.2289 36.3288C22.2288 36.3287 22.2285 36.3286 22.2284 36.3285C22.2282 36.3284 22.228 36.3283 22.2279 36.3282L21.0916 35.6549C20.8119 35.4892 20.451 35.5815 20.2854 35.8612C20.1198 36.1408 20.212 36.5017 20.4916 36.6674L21.6282 37.3407C21.6284 37.3408 21.6285 37.341 21.6287 37.341C22.0067 37.5649 22.1328 38.0528 21.908 38.4323C21.6841 38.8103 21.1946 38.9356 20.8166 38.7117L19.4907 37.9263C20.0591 37.0492 19.8429 35.8674 18.985 35.2516C18.733 35.0708 18.4525 34.9582 18.1655 34.9099C18.4699 34.096 18.2075 33.1459 17.4685 32.6154C17.031 32.3012 16.5072 32.1927 16.0128 32.2702C15.9248 31.7557 15.6435 31.3051 15.2191 31.0005C14.4208 30.4276 13.3359 30.5377 12.6659 31.2156C12.5297 30.9764 12.3417 30.7619 12.1039 30.5912C11.4405 30.1151 10.5793 30.1106 9.92258 30.5117L9.65297 30.3525L13.3538 24.1057L13.5299 24.2096C14.308 24.6706 15.2576 24.7667 16.1376 24.4263L17.2687 23.9891C17.9159 23.7389 18.2729 23.7226 18.9131 24.0247C18.4942 24.4953 18.2455 25.1132 18.2455 25.7792V28.3881C18.2455 29.0811 18.8089 29.6452 19.5013 29.6457H19.503C20.1976 29.6457 20.8507 29.3753 21.342 28.8843C21.6284 28.5981 21.8398 28.2568 21.9666 27.8843C22.7263 28.3342 29.0034 32.0513 29.7312 32.4825C29.9142 32.591 30.0441 32.7642 30.0968 32.9703C30.1495 33.1761 30.1188 33.3904 30.0104 33.5735ZM34.2782 29.5626L33.0655 30.2811C32.5323 30.5967 31.8419 30.4199 31.5263 29.8871L29.6719 26.757C29.5062 26.4774 29.1451 26.3852 28.8657 26.5506C28.5861 26.7163 28.4938 27.0772 28.6593 27.3568L30.5137 30.487C30.5486 30.5459 30.5865 30.6019 30.6257 30.6565L30.1102 30.9577C30.0059 31.0194 29.9057 31.0874 29.8098 31.1612L21.8159 26.4272C21.4242 26.1954 20.9277 26.478 20.9277 26.9335C20.9215 26.9686 20.9884 27.5735 20.5101 28.0517C20.241 28.3205 19.8834 28.4686 19.503 28.4686C19.5027 28.4686 19.5023 28.4686 19.502 28.4686C19.458 28.4686 19.4223 28.4324 19.4223 28.3878V25.7788C19.4223 25.0973 19.8912 24.5223 20.5253 24.3617L22.4797 23.8671C23.1888 23.6879 23.5897 24.0666 24.6515 24.426C25.3886 24.7111 26.1901 24.6935 26.9015 24.3897L27.2566 24.9892C27.4223 25.269 27.7833 25.3612 28.0628 25.1956C28.3424 25.03 28.4348 24.6691 28.2692 24.3895L27.5697 23.2088C27.2532 22.6745 27.4295 21.9861 27.9637 21.6695L29.1763 20.9511C29.2293 20.9196 29.2994 20.9357 29.3322 20.991L34.318 29.4067C34.3502 29.461 34.3324 29.5305 34.2782 29.5626Z" fill="#007BA7"/>
</svg>
