<svg width="40" height="38" viewBox="0 0 40 38" fill="none" xmlns="http://www.w3.org/2000/svg">
<path d="M37.564 16.062H35.5471C35.4322 15.6461 35.1851 15.279 34.843 15.016C34.5009 14.753 34.0825 14.6086 33.651 14.6045H31.498V9.33945C31.5004 9.24095 31.4766 9.14359 31.429 9.05733C31.3814 8.97108 31.3117 8.89903 31.227 8.8486L16.0386 0.0759661C15.953 0.0262098 15.8558 0 15.7568 0C15.6578 0 15.5605 0.0262098 15.4749 0.0759661L0.281784 8.8486C0.195818 8.89843 0.124506 8.97004 0.0750357 9.05622C0.0255654 9.14239 -0.000314949 9.24008 2.89266e-06 9.33945V26.8848C5.42015e-06 26.9843 0.0261964 27.082 0.0759435 27.1682C0.125691 27.2543 0.197241 27.3259 0.283404 27.3756L15.4781 36.1483C15.5642 36.198 15.662 36.2242 15.7615 36.2242C15.8635 36.2243 15.9639 36.1981 16.053 36.1483L24.0486 31.5364V34.8703C24.0478 35.1877 24.1099 35.5021 24.2314 35.7954C24.3529 36.0886 24.5314 36.3548 24.7565 36.5786C24.9816 36.8024 25.2489 36.9793 25.5428 37.0992C25.8367 37.219 26.1515 37.2793 26.4689 37.2766H37.564C37.8823 37.2796 38.1979 37.2196 38.4929 37.1001C38.7878 36.9805 39.0562 36.8039 39.2826 36.5802C39.509 36.3566 39.689 36.0904 39.8121 35.7969C39.9352 35.5034 39.9991 35.1885 40 34.8703V18.5059C39.9996 17.8593 39.7431 17.2391 39.2866 16.7811C38.8301 16.3231 38.2107 16.0645 37.564 16.062ZM33.6712 15.7382C33.8894 15.7382 34.0987 15.8248 34.253 15.9791C34.4072 16.1334 34.4939 16.3427 34.4939 16.5609V16.6158C34.4939 16.834 34.4072 17.0433 34.253 17.1976C34.0987 17.3519 33.8894 17.4386 33.6712 17.4386H30.3774C30.1592 17.4386 29.9499 17.3519 29.7956 17.1976C29.6413 17.0433 29.5547 16.834 29.5547 16.6158V16.5609C29.5547 16.3427 29.6413 16.1334 29.7956 15.9791C29.9499 15.8248 30.1592 15.7382 30.3774 15.7382H33.6712ZM15.7615 1.22131L22.0751 4.86649L8.01506 12.9841L1.70146 9.33888L15.7615 1.22131ZM15.2227 34.6756L1.13361 26.5575V10.3199L15.2227 18.4381V34.6756ZM15.7615 17.4564L9.14867 13.6385L23.2087 5.52099L29.8219 9.33888L15.7615 17.4564ZM24.0486 18.5059V30.2275L16.3563 34.6756V18.4381L30.3644 10.3199V14.6045H30.3819C29.9505 14.6086 29.5321 14.753 29.19 15.016C28.8479 15.2789 28.6007 15.6461 28.4858 16.062H26.4689C25.8239 16.0652 25.2065 16.3244 24.7526 16.7827C24.2987 17.241 24.0455 17.8609 24.0486 18.5059ZM38.8664 34.8703C38.8656 35.0397 38.8312 35.2073 38.7651 35.3633C38.699 35.5193 38.6026 35.6606 38.4814 35.779C38.3602 35.8974 38.2167 35.9906 38.0592 36.0531C37.9018 36.1156 37.7334 36.1461 37.564 36.143H26.4689C26.3003 36.1458 26.1329 36.115 25.9764 36.0522C25.8199 35.9894 25.6776 35.896 25.5577 35.7774C25.4378 35.6589 25.3429 35.5175 25.2784 35.3618C25.2139 35.206 25.1812 35.0389 25.1822 34.8703V18.5059C25.1805 18.3354 25.2124 18.1661 25.2762 18.0079C25.34 17.8497 25.4343 17.7056 25.5538 17.5839C25.6733 17.4622 25.8157 17.3653 25.9727 17.2987C26.1297 17.232 26.2983 17.197 26.4689 17.1956H28.5079C28.6295 17.5968 28.8778 17.9478 29.2157 18.196C29.5535 18.4442 29.9627 18.5762 30.3819 18.5722H33.651C34.0702 18.5762 34.4794 18.4442 34.8173 18.196C35.1551 17.9478 35.4034 17.5968 35.5249 17.1956H37.564C37.9102 17.1978 38.2413 17.3368 38.4853 17.5823C38.7293 17.8278 38.8663 18.1598 38.8664 18.5059V34.8703Z" fill="#007BA7"/>
<path d="M27.1213 24.2402H27.7146C27.8649 24.2402 28.0091 24.1805 28.1153 24.0742C28.2216 23.9679 28.2814 23.8238 28.2814 23.6734C28.2814 23.5231 28.2216 23.3789 28.1153 23.2726C28.0091 23.1664 27.8649 23.1066 27.7146 23.1066H27.6922V21.5682H29.2555C29.2911 21.6821 29.3631 21.7813 29.4604 21.8504C29.5578 21.9196 29.6751 21.9549 29.7944 21.9509C29.9449 21.9513 30.0894 21.892 30.1963 21.786C30.3031 21.68 30.3635 21.5359 30.3643 21.3854V21.004C30.363 20.8528 30.3021 20.7082 30.1948 20.6015C30.0876 20.4949 29.9426 20.4349 29.7913 20.4346H27.1213C27.0469 20.435 26.9734 20.45 26.9048 20.4788C26.8363 20.5077 26.7741 20.5497 26.7219 20.6026C26.6696 20.6555 26.6283 20.7182 26.6003 20.7871C26.5722 20.856 26.5581 20.9297 26.5586 21.004V23.6741C26.5582 23.7483 26.5724 23.8218 26.6005 23.8905C26.6285 23.9591 26.6699 24.0216 26.7222 24.0742C26.7745 24.1268 26.8367 24.1686 26.9052 24.1971C26.9736 24.2256 27.0471 24.2402 27.1213 24.2402Z" fill="#007BA7"/>
<path d="M27.1254 29.4224H29.7975C29.9478 29.4224 30.092 29.3626 30.1982 29.2564C30.3045 29.1501 30.3643 29.0059 30.3643 28.8556V26.1835C30.3643 26.0332 30.3045 25.889 30.1982 25.7827C30.092 25.6764 29.9478 25.6167 29.7975 25.6167H27.1254C26.9751 25.6167 26.8309 25.6764 26.7246 25.7827C26.6183 25.889 26.5586 26.0332 26.5586 26.1835V28.8556C26.5586 29.0059 26.6183 29.1501 26.7246 29.2564C26.8309 29.3626 26.9751 29.4224 27.1254 29.4224ZM27.6922 26.7503H29.2307V28.2888H27.6922V26.7503Z" fill="#007BA7"/>
<path d="M27.7147 33.4709H27.6922V31.9324H29.2249C29.2279 32.0815 29.2891 32.2235 29.3955 32.3279C29.5019 32.4323 29.645 32.4909 29.7941 32.491C29.9432 32.4912 30.0864 32.4329 30.193 32.3287C30.2996 32.2245 30.3611 32.0826 30.3643 31.9336V31.3874C30.3637 31.2342 30.3037 31.0871 30.1968 30.9773C30.0899 30.8675 29.9445 30.8035 29.7913 30.7988H27.1213C26.9692 30.8039 26.8251 30.8684 26.72 30.9784C26.6148 31.0884 26.5569 31.2352 26.5586 31.3874V34.0575C26.5586 34.1306 26.5732 34.2031 26.6016 34.2705C26.6301 34.338 26.6718 34.399 26.7242 34.45C26.7767 34.501 26.8389 34.541 26.9071 34.5675C26.9753 34.5941 27.0481 34.6066 27.1213 34.6045H27.7147C27.865 34.6045 28.0092 34.5448 28.1155 34.4385C28.2217 34.3322 28.2815 34.188 28.2815 34.0377C28.2815 33.8874 28.2217 33.7432 28.1155 33.6369C28.0092 33.5306 27.865 33.4709 27.7147 33.4709Z" fill="#007BA7"/>
<path d="M31.0964 21.1301L29.4364 22.7901L28.9315 22.285C28.8789 22.2324 28.8164 22.1906 28.7476 22.1622C28.6788 22.1337 28.6051 22.119 28.5307 22.119C28.4563 22.119 28.3826 22.1337 28.3138 22.1622C28.245 22.1906 28.1825 22.2324 28.1299 22.285C28.0773 22.3377 28.0355 22.4002 28.007 22.4689C27.9785 22.5377 27.9639 22.6114 27.9639 22.6858C27.9639 22.7603 27.9785 22.834 28.007 22.9028C28.0355 22.9715 28.0773 23.034 28.1299 23.0867L29.0357 23.9924C29.0884 24.045 29.1508 24.0868 29.2196 24.1153C29.2884 24.1438 29.3621 24.1584 29.4365 24.1584C29.511 24.1584 29.5847 24.1438 29.6534 24.1153C29.7222 24.0868 29.7847 24.045 29.8373 23.9924L31.8982 21.9315C32.0045 21.8252 32.0642 21.681 32.0642 21.5307C32.0642 21.3804 32.0045 21.2362 31.8982 21.1299C31.7919 21.0236 31.6477 20.9639 31.4974 20.9639C31.3471 20.9639 31.2029 21.0236 31.0966 21.1299L31.0964 21.1301Z" fill="#007BA7"/>
<path d="M31.0964 31.5957L29.4364 33.2556L28.9315 32.7506C28.8789 32.698 28.8164 32.6562 28.7476 32.6277C28.6788 32.5992 28.6051 32.5846 28.5307 32.5846C28.4563 32.5846 28.3826 32.5992 28.3138 32.6277C28.245 32.6562 28.1825 32.698 28.1299 32.7506C28.0773 32.8032 28.0355 32.8657 28.007 32.9345C27.9785 33.0033 27.9639 33.077 27.9639 33.1514C27.9639 33.2259 27.9785 33.2996 28.007 33.3683C28.0355 33.4371 28.0773 33.4996 28.1299 33.5522L29.0357 34.458C29.0884 34.5106 29.1508 34.5524 29.2196 34.5809C29.2884 34.6093 29.3621 34.624 29.4365 34.624C29.511 34.624 29.5847 34.6093 29.6534 34.5809C29.7222 34.5524 29.7847 34.5106 29.8373 34.458L31.8982 32.3971C32.0045 32.2908 32.0642 32.1466 32.0642 31.9963C32.0642 31.8459 32.0045 31.7018 31.8982 31.5955C31.7919 31.4892 31.6477 31.4294 31.4974 31.4294C31.3471 31.4294 31.2029 31.4892 31.0966 31.5955L31.0964 31.5957Z" fill="#007BA7"/>
<path d="M36.9115 21.811H33.3515C33.2011 21.811 33.057 21.8708 32.9507 21.977C32.8444 22.0833 32.7847 22.2275 32.7847 22.3778C32.7847 22.5282 32.8444 22.6723 32.9507 22.7786C33.057 22.8849 33.2011 22.9446 33.3515 22.9446H36.9115C37.0618 22.9446 37.206 22.8849 37.3123 22.7786C37.4186 22.6723 37.4783 22.5282 37.4783 22.3778C37.4783 22.2275 37.4186 22.0833 37.3123 21.977C37.206 21.8708 37.0618 21.811 36.9115 21.811Z" fill="#007BA7"/>
<path d="M36.9115 26.9932H33.3515C33.2011 26.9932 33.057 27.0529 32.9507 27.1592C32.8444 27.2655 32.7847 27.4096 32.7847 27.56C32.7847 27.7103 32.8444 27.8545 32.9507 27.9608C33.057 28.0671 33.2011 28.1268 33.3515 28.1268H36.9115C37.0618 28.1268 37.206 28.0671 37.3123 27.9608C37.4186 27.8545 37.4783 27.7103 37.4783 27.56C37.4783 27.4096 37.4186 27.2655 37.3123 27.1592C37.206 27.0529 37.0618 26.9932 36.9115 26.9932Z" fill="#007BA7"/>
<path d="M36.9115 32.1753H33.3515C33.2011 32.1753 33.057 32.235 32.9507 32.3413C32.8444 32.4476 32.7847 32.5918 32.7847 32.7421C32.7847 32.8924 32.8444 33.0366 32.9507 33.1429C33.057 33.2492 33.2011 33.3089 33.3515 33.3089H36.9115C37.0618 33.3089 37.206 33.2492 37.3123 33.1429C37.4186 33.0366 37.4783 32.8924 37.4783 32.7421C37.4783 32.5918 37.4186 32.4476 37.3123 32.3413C37.206 32.235 37.0618 32.1753 36.9115 32.1753Z" fill="#007BA7"/>
</svg>
