<svg width="36" height="40" viewBox="0 0 36 40" fill="none" xmlns="http://www.w3.org/2000/svg">
<path d="M23.5077 0.408777C21.0159 0.113934 18.5079 -0.0216654 15.9989 0.0028063C7.0275 0.0028063 0 3.51655 0 8.00223V18.6681C0 22.2565 4.52168 25.279 11.1825 26.2976C9.32089 27.6415 7.35303 29.0265 5.27896 30.4526C4.93117 30.6913 4.71734 31.081 4.70274 31.5026C4.68814 31.9241 4.87452 32.3276 5.20496 32.5898L14.1003 39.7073C14.572 40.0835 15.2367 40.0985 15.7249 39.744C17.2141 38.6594 18.668 37.5261 20.0839 36.3629C21.4616 35.2292 22.7948 34.0659 24.0836 32.8731C24.0903 32.8658 24.0996 32.8638 24.1056 32.8565L24.1103 32.8485C25.3724 31.6819 26.5821 30.4962 27.7394 29.2914C27.7534 29.278 27.772 29.2727 27.7847 29.2574C27.7973 29.242 27.7953 29.2354 27.8027 29.2254C28.652 28.3394 29.4799 27.4482 30.2618 26.5516C32.483 24.0038 35.2468 20.834 35.7734 16.9296C36.3107 12.9472 35.5688 7.04564 31.7111 3.51922C29.3012 1.30871 26.2128 0.754753 23.5077 0.408777ZM15.9989 1.33604C23.9483 1.33604 30.6645 4.38916 30.6645 8.00223C30.6645 12.3226 22.0651 14.6684 15.9989 14.6684C8.04943 14.6684 1.33324 11.6153 1.33324 8.00223C1.33324 4.38916 8.04943 1.33604 15.9989 1.33604ZM1.33324 18.6681V11.2513C3.77973 14.0731 9.35467 16.0017 15.9989 16.0017C19.5036 16.0584 22.9866 15.4417 26.2588 14.1851C22.1677 17.9588 17.851 21.4801 13.3324 24.7297V21.3346C13.3324 20.9665 13.0339 20.668 12.6658 20.668C12.2976 20.668 11.9991 20.9665 11.9991 21.3346V25.0677C10.8747 24.9208 9.7612 24.6994 8.66605 24.4051V20.668C8.66605 20.2998 8.36759 20.0014 7.99943 20.0014C7.63127 20.0014 7.33281 20.2998 7.33281 20.668V24.0011C6.41074 23.6923 5.51832 23.3012 4.66633 22.8325V18.6681C4.66633 18.3 4.36788 18.0015 3.99971 18.0015C3.63155 18.0015 3.3331 18.3 3.3331 18.6681V21.9552C2.06652 20.9673 1.33324 19.8381 1.33324 18.6681ZM14.9323 38.6667L6.03357 31.5519C7.05016 30.8533 8.13809 30.0973 9.26734 29.302C9.85364 29.6779 10.5567 29.8274 11.2452 29.7227C11.6763 29.6305 12.1263 29.7249 12.484 29.9826C12.8418 30.2402 13.0739 30.6371 13.1231 31.0753C13.3912 32.6225 14.845 33.6729 16.3982 33.4417C16.8299 33.3535 17.2788 33.4502 17.6359 33.7084C17.9929 33.9666 18.2253 34.3627 18.2767 34.8003C18.351 35.1538 18.4778 35.4942 18.6527 35.8102C17.4401 36.7882 16.1988 37.7448 14.9323 38.6667ZM34.4582 16.7483C34.3039 17.8022 33.9859 18.8256 33.5156 19.7814L32.5677 18.4482C32.3541 18.1481 31.9378 18.078 31.6377 18.2915C31.3377 18.505 31.2675 18.9214 31.4811 19.2214L32.8083 21.088C32.1659 22.1215 31.4494 23.1071 30.6645 24.0371L28.8093 21.9159C28.653 21.7351 28.4118 21.6519 28.1773 21.6977C27.9427 21.7435 27.7506 21.9113 27.6738 22.1376C27.597 22.3639 27.6472 22.614 27.8053 22.7932L29.7899 25.0677C29.6119 25.2737 29.4352 25.477 29.2626 25.6743C28.6133 26.4196 27.9293 27.1609 27.2321 27.8988L24.4323 25.499C24.2529 25.3333 23.9974 25.2789 23.7661 25.3572C23.5349 25.4355 23.3649 25.6339 23.3231 25.8745C23.2813 26.115 23.3744 26.3592 23.5657 26.5109L26.3101 28.8661C25.4335 29.7627 24.5202 30.6493 23.5816 31.5259L20.4319 28.8274C20.2509 28.6726 20.001 28.6261 19.7765 28.7055C19.5519 28.7848 19.3867 28.978 19.3432 29.2121C19.2996 29.4463 19.3843 29.6859 19.5653 29.8407L22.5984 32.4365C21.6651 33.2851 20.6939 34.1164 19.7093 34.9363C19.6533 34.7851 19.6067 34.6306 19.5699 34.4737C19.3025 32.9287 17.8501 31.8801 16.2995 32.1125C15.8663 32.2004 15.4162 32.1028 15.0582 31.8435C14.7003 31.5842 14.4672 31.1869 14.4156 30.7479C14.1519 29.2013 12.6957 28.1527 11.1452 28.3928C10.9458 28.4142 10.7448 28.4154 10.5452 28.3961C18.1314 22.9965 27.1927 16.0237 30.6105 11.312C31.4436 10.4326 31.9355 9.28469 31.9977 8.0749C32.0324 5.97905 30.5605 4.3165 28.8053 3.15058C29.5377 3.50291 30.2162 3.95766 30.8205 4.50115C34.0722 7.47561 34.9908 12.7952 34.4582 16.7483Z" fill="#007BA7"/>
<path d="M15.9779 12.002C18.705 12.002 23.2567 11.2194 24.4293 8.74891C25.2252 7.0717 23.8433 5.34916 22.2861 4.29723C20.8166 3.36624 19.1984 2.69389 17.5018 2.30937C16.9829 2.17778 16.4324 2.283 15.9986 2.59669C15.7331 2.78795 15.5234 3.04661 15.3913 3.34597C10.7616 3.49729 7.33252 5.31449 7.33252 7.66899C7.33252 10.8121 12.5828 12.002 15.9779 12.002ZM20.8729 9.86883L21.1115 5.13184C21.26 5.22072 21.4033 5.3116 21.5415 5.40449C24.0453 7.09237 23.9927 8.69892 20.8729 9.86883ZM16.5692 4.05792V4.04525C16.5806 3.89834 16.6562 3.76395 16.7758 3.67794C16.8893 3.59349 17.0349 3.56505 17.1718 3.60062C18.0723 3.82407 18.9542 4.1167 19.8096 4.47589L19.5176 10.2795C18.3951 10.5398 17.2463 10.6704 16.0939 10.6688L16.5692 4.05792ZM15.188 4.68854L14.762 10.6214C11.0883 10.3561 8.66576 8.92957 8.66576 7.66899C8.66576 6.35109 11.3089 4.87586 15.188 4.68854Z" fill="#007BA7"/>
<path d="M17.9987 6.66919C17.6305 6.66919 17.332 6.96764 17.332 7.33581V8.00243C17.332 8.37059 17.6305 8.66905 17.9987 8.66905C18.3668 8.66905 18.6653 8.37059 18.6653 8.00243V7.33581C18.6653 6.96764 18.3668 6.66919 17.9987 6.66919Z" fill="#007BA7"/>
<path d="M11.0825 32.1467C10.795 31.9166 10.3753 31.9632 10.1452 32.2507C9.91513 32.5382 9.96169 32.9579 10.2492 33.188L13.5823 35.8544C13.8699 36.0845 14.2895 36.038 14.5196 35.7504C14.7497 35.4629 14.7031 35.0433 14.4156 34.8132L11.0825 32.1467Z" fill="#007BA7"/>
</svg>
